<?xml version="1.0" encoding="utf-8"?>
<!-- Generator: Adobe Illustrator 22.0.0, SVG Export Plug-In . SVG Version: 6.00 Build 0)  -->
<svg version="1.1" id="Capa_1" xmlns="http://www.w3.org/2000/svg" xmlns:xlink="http://www.w3.org/1999/xlink" x="0px" y="0px"
	 viewBox="0 0 512 512" style="enable-background:new 0 0 512 512;" xml:space="preserve">
<style type="text/css">
	.st0{fill:#FF4F19;}
	.st1{fill:#E23D17;}
	.st2{fill:#B7C1CA;}
	.st3{fill:#A3AEB7;}
	.st4{fill:#FFDBA9;}
	.st5{fill:#FFC473;}
</style>
<g>
	<path class="st0" d="M337.6,275.3l40.4,50.3c1,1.2,2.5,1.9,4.1,1.9h124.7c4.2,0,6.7-4.8,4.2-8.3l-31.9-44L337.6,275.3L337.6,275.3z
		"/>
	<path class="st0" d="M337.6,236.7l40.4-50.3c1-1.2,2.5-1.9,4.1-1.9h124.7c4.2,0,6.7,4.8,4.2,8.3l-31.9,44L337.6,236.7L337.6,236.7z
		"/>
</g>
<g>
	<path class="st1" d="M382.1,184.4h124.7c4.3,0,6.7,4.8,4.2,8.2l-9.6,13.3c-0.9-0.8-2.2-1.3-3.5-1.3H365c-0.7,0-1.3,0.1-2,0.4
		l15-18.7C379,185.1,380.5,184.4,382.1,184.4z"/>
	<path class="st1" d="M382.1,327.6h124.7c4.3,0,6.7-4.8,4.2-8.2l-9.6-13.3c-0.9,0.8-2.2,1.3-3.5,1.3H365c-0.7,0-1.3-0.1-2-0.4
		l15,18.7C379,326.9,380.5,327.6,382.1,327.6z"/>
</g>
<path class="st2" d="M2.2,260.5l48.6,35.7c3.5,2.6,8.5,0.1,8.5-4.3v-35.7v-35.7c0-4.4-5-6.9-8.5-4.3L2.2,251.9
	C-0.7,254-0.7,258.3,2.2,260.5z"/>
<path class="st3" d="M59.3,220.4v16.6l-44.5,32.7l-12.6-9.3c-2.9-2.1-2.9-6.5,0-8.6l48.6-35.7C54.3,213.5,59.3,216.1,59.3,220.4z"/>
<rect x="59.3" y="236.7" class="st4" width="418.9" height="38.7"/>
<rect x="59.3" y="236.7" class="st5" width="418.9" height="19.3"/>
</svg>
